<svg width="50" height="40" viewBox="0 0 50 40" fill="none" xmlns="http://www.w3.org/2000/svg">
<path d="M26.6667 0C22.98 0 20 2.98 20 6.66666V8.33333H10.0167C8.3717 8.33333 6.85003 9.23666 6.07503 10.7067L0.433367 21.4416L0.410034 21.495C0.137594 22.0694 -0.00251266 22.6976 3.41075e-05 23.3333V25H1.5167C2.5167 25 3.33337 25.8166 3.33337 26.8166V29.85C3.33337 30.85 2.5167 31.6666 1.5167 31.6666H0.181701C0.461498 32.6314 1.04663 33.4795 1.84928 34.0835C2.65194 34.6875 3.62883 35.0149 4.63336 35.0166H5.04836C4.9297 33.9673 5.03397 32.9047 5.35436 31.8985C5.67474 30.8922 6.20401 29.965 6.90753 29.1774C7.61105 28.3899 8.47296 27.7597 9.43683 27.3283C10.4007 26.8969 11.4448 26.6739 12.5009 26.6739C13.5569 26.6739 14.601 26.8969 15.5649 27.3283C16.5288 27.7597 17.3907 28.3899 18.0942 29.1774C18.7977 29.965 19.327 30.8922 19.6474 31.8985C19.9677 32.9047 20.072 33.9673 19.9534 35.0166H30.0483C29.9297 33.9673 30.034 32.9047 30.3543 31.8985C30.6747 30.8922 31.204 29.965 31.9075 29.1774C32.611 28.3899 33.4729 27.7597 34.4368 27.3283C35.4007 26.8969 36.4448 26.6739 37.5008 26.6739C38.5569 26.6739 39.601 26.8969 40.5649 27.3283C41.5287 27.7597 42.3907 28.3899 43.0942 29.1774C43.7977 29.965 44.327 30.8922 44.6473 31.8985C44.9677 32.9047 45.072 33.9673 44.9533 35.0166H45.3333C47.4467 35.0166 49.24 33.6 49.81 31.6666H49.25C47.9 31.6666 46.7333 30.6333 46.6667 29.2833C46.6 27.85 47.75 26.6666 49.1667 26.6666H50V6.66666C50 2.98 47.02 0 43.3333 0H26.6667ZM23.3334 23.3333V6.66666C23.3334 4.82 24.82 3.33333 26.6667 3.33333H43.3333C45.18 3.33333 46.6667 4.82 46.6667 6.66666V23.3333H23.3334ZM21.6667 23.3333H3.33337C3.33088 23.2634 3.33703 23.1934 3.3517 23.125C3.37386 23.0432 3.40285 22.9635 3.43837 22.8866L4.07836 21.6666H13.1667C14.1834 21.6666 15 20.85 15 19.8333V15.1833C15 14.1667 14.1834 13.35 13.1667 13.35H8.45003L9.02503 12.26C9.12049 12.0801 9.26335 11.9297 9.43814 11.8251C9.61293 11.7205 9.813 11.6657 10.0167 11.6667H21.6667V23.3333Z" fill="#841504"/>
<path d="M18.3327 34.1663C18.3327 35.7134 17.7181 37.1971 16.6241 38.2911C15.5302 39.3851 14.0464 39.9996 12.4993 39.9996C10.9523 39.9996 9.46852 39.3851 8.37456 38.2911C7.2806 37.1971 6.66602 35.7134 6.66602 34.1663C6.66602 32.6192 7.2806 31.1355 8.37456 30.0415C9.46852 28.9476 10.9523 28.333 12.4993 28.333C14.0464 28.333 15.5302 28.9476 16.6241 30.0415C17.7181 31.1355 18.3327 32.6192 18.3327 34.1663ZM12.4993 36.6663C13.1624 36.6663 13.7983 36.4029 14.2671 35.9341C14.736 35.4652 14.9993 34.8294 14.9993 34.1663C14.9993 33.5033 14.736 32.8674 14.2671 32.3985C13.7983 31.9297 13.1624 31.6663 12.4993 31.6663C11.8363 31.6663 11.2004 31.9297 10.7316 32.3985C10.2627 32.8674 9.99935 33.5033 9.99935 34.1663C9.99935 34.8294 10.2627 35.4652 10.7316 35.9341C11.2004 36.4029 11.8363 36.6663 12.4993 36.6663ZM43.3327 34.1663C43.3327 35.7134 42.7181 37.1971 41.6241 38.2911C40.5302 39.3851 39.0464 39.9996 37.4993 39.9996C35.9522 39.9996 34.4685 39.3851 33.3745 38.2911C32.2806 37.1971 31.666 35.7134 31.666 34.1663C31.666 32.6192 32.2806 31.1355 33.3745 30.0415C34.4685 28.9476 35.9522 28.333 37.4993 28.333C39.0464 28.333 40.5302 28.9476 41.6241 30.0415C42.7181 31.1355 43.3327 32.6192 43.3327 34.1663ZM37.4993 36.6663C38.1624 36.6663 38.7983 36.4029 39.2671 35.9341C39.7359 35.4652 39.9993 34.8294 39.9993 34.1663C39.9993 33.5033 39.7359 32.8674 39.2671 32.3985C38.7983 31.9297 38.1624 31.6663 37.4993 31.6663C36.8363 31.6663 36.2004 31.9297 35.7316 32.3985C35.2627 32.8674 34.9993 33.5033 34.9993 34.1663C34.9993 34.8294 35.2627 35.4652 35.7316 35.9341C36.2004 36.4029 36.8363 36.6663 37.4993 36.6663Z" fill="#841504"/>
</svg>
