<svg width="55" height="45" viewBox="0 0 55 45" fill="none" xmlns="http://www.w3.org/2000/svg">
<path d="M26.6667 5.00009C22.98 5.00009 20 7.98009 20 11.6668V13.3334H10.0167C8.3717 13.3334 6.85003 14.2368 6.07503 15.7068L0.433367 26.4418L0.410034 26.4951C0.137594 27.0695 -0.00251266 27.6977 3.41075e-05 28.3334V30.0001H1.5167C2.5167 30.0001 3.33337 30.8168 3.33337 31.8168V34.8501C3.33337 35.8501 2.5167 36.6667 1.5167 36.6667H0.181701C0.461499 37.6315 1.04663 38.4796 1.84928 39.0836C2.65194 39.6876 3.62883 40.015 4.63337 40.0168H5.04837C4.9297 38.9674 5.03398 37.9048 5.35436 36.8986C5.67475 35.8923 6.20402 34.9651 6.90754 34.1775C7.61106 33.39 8.47296 32.7599 9.43684 32.3284C10.4007 31.897 11.4448 31.674 12.5009 31.674C13.5569 31.674 14.601 31.897 15.5649 32.3284C16.5288 32.7599 17.3907 33.39 18.0942 34.1775C18.7977 34.9651 19.327 35.8923 19.6474 36.8986C19.9678 37.9048 20.072 38.9674 19.9534 40.0168H30.0484C29.9297 38.9674 30.034 37.9048 30.3544 36.8986C30.6747 35.8923 31.204 34.9651 31.9075 34.1775C32.6111 33.39 33.473 32.7599 34.4368 32.3284C35.4007 31.897 36.4448 31.674 37.5009 31.674C38.5569 31.674 39.601 31.897 40.5649 32.3284C41.5288 32.7599 42.3907 33.39 43.0942 34.1775C43.7977 34.9651 44.327 35.8923 44.6474 36.8986C44.9678 37.9048 45.072 38.9674 44.9534 40.0168H45.3334C47.4467 40.0168 49.24 38.6001 49.81 36.6667H49.25C47.9 36.6667 46.7334 35.6334 46.6667 34.2834C46.6 32.8501 47.75 31.6668 49.1667 31.6668H50V11.6668C50 7.98009 47.02 5.00009 43.3334 5.00009H26.6667ZM23.3334 28.3334V11.6668C23.3334 9.82009 24.82 8.33342 26.6667 8.33342H43.3334C45.18 8.33342 46.6667 9.82009 46.6667 11.6668V28.3334H23.3334ZM21.6667 28.3334H3.33337C3.33088 28.2635 3.33704 28.1935 3.3517 28.1251C3.37386 28.0434 3.40285 27.9636 3.43837 27.8868L4.07837 26.6668H13.1667C14.1834 26.6668 15 25.8501 15 24.8334V20.1834C15 19.1668 14.1834 18.3501 13.1667 18.3501H8.45004L9.02503 17.2601C9.12049 17.0801 9.26335 16.9297 9.43815 16.8252C9.61294 16.7206 9.81301 16.6658 10.0167 16.6668H21.6667V28.3334Z" fill="#841504"/>
<path d="M18.3327 39.1667C18.3327 40.7138 17.7181 42.1975 16.6241 43.2915C15.5302 44.3854 14.0464 45 12.4993 45C10.9523 45 9.46852 44.3854 8.37456 43.2915C7.2806 42.1975 6.66602 40.7138 6.66602 39.1667C6.66602 37.6196 7.2806 36.1358 8.37456 35.0419C9.46852 33.9479 10.9523 33.3333 12.4993 33.3333C14.0464 33.3333 15.5302 33.9479 16.6241 35.0419C17.7181 36.1358 18.3327 37.6196 18.3327 39.1667ZM12.4993 41.6667C13.1624 41.6667 13.7983 41.4033 14.2671 40.9344C14.736 40.4656 14.9993 39.8297 14.9993 39.1667C14.9993 38.5036 14.736 37.8677 14.2671 37.3989C13.7983 36.9301 13.1624 36.6667 12.4993 36.6667C11.8363 36.6667 11.2004 36.9301 10.7316 37.3989C10.2627 37.8677 9.99935 38.5036 9.99935 39.1667C9.99935 39.8297 10.2627 40.4656 10.7316 40.9344C11.2004 41.4033 11.8363 41.6667 12.4993 41.6667ZM43.3327 39.1667C43.3327 40.7138 42.7181 42.1975 41.6241 43.2915C40.5302 44.3854 39.0464 45 37.4994 45C35.9523 45 34.4685 44.3854 33.3746 43.2915C32.2806 42.1975 31.666 40.7138 31.666 39.1667C31.666 37.6196 32.2806 36.1358 33.3746 35.0419C34.4685 33.9479 35.9523 33.3333 37.4994 33.3333C39.0464 33.3333 40.5302 33.9479 41.6241 35.0419C42.7181 36.1358 43.3327 37.6196 43.3327 39.1667ZM37.4994 41.6667C38.1624 41.6667 38.7983 41.4033 39.2671 40.9344C39.736 40.4656 39.9994 39.8297 39.9994 39.1667C39.9994 38.5036 39.736 37.8677 39.2671 37.3989C38.7983 36.9301 38.1624 36.6667 37.4994 36.6667C36.8363 36.6667 36.2004 36.9301 35.7316 37.3989C35.2627 37.8677 34.9994 38.5036 34.9994 39.1667C34.9994 39.8297 35.2627 40.4656 35.7316 40.9344C36.2004 41.4033 36.8363 41.6667 37.4994 41.6667Z" fill="#841504"/>
<path fill-rule="evenodd" clip-rule="evenodd" d="M43.3332 23.3333C46.4274 23.3333 49.3948 22.1042 51.5827 19.9162C53.7707 17.7283 54.9998 14.7609 54.9998 11.6667C54.9998 8.57247 53.7707 5.60501 51.5827 3.41709C49.3948 1.22916 46.4274 0 43.3332 0C40.239 0 37.2715 1.22916 35.0836 3.41709C32.8957 5.60501 31.6665 8.57247 31.6665 11.6667C31.6665 14.7609 32.8957 17.7283 35.0836 19.9162C37.2715 22.1042 40.239 23.3333 43.3332 23.3333ZM41.6332 16.45H40.4498L36.6665 12.6667L37.8498 11.4833L41.0498 14.6833L48.0498 7.66667L49.2332 8.85L41.6332 16.45Z" fill="#FF7A00"/>
</svg>
