<svg width="47" height="43" viewBox="0 0 47 43" fill="none" xmlns="http://www.w3.org/2000/svg">
<path d="M12.5039 34.596C15.5224 37.6145 19.4942 39.493 23.7426 39.9112C27.9909 40.3294 32.2528 39.2615 35.8019 36.8895C39.3511 34.5175 41.9679 30.9881 43.2064 26.9029C44.445 22.8177 44.2286 18.4294 42.5941 14.4858C40.9596 10.5423 38.0083 7.28751 34.2429 5.27621C30.4776 3.2649 26.1313 2.62151 21.9448 3.45569C17.7582 4.28986 13.9905 6.54997 11.2836 9.85087C8.57672 13.1518 7.09824 17.2892 7.1001 21.558V25.6498" stroke="#841504" stroke-width="5" stroke-linecap="round" stroke-linejoin="round"/>
<path d="M3 21.5496L7.09999 25.6496L11.2 21.5496M23.5 13.3496V23.5996H33.7499" stroke="#841504" stroke-width="5" stroke-linecap="round" stroke-linejoin="round"/>
</svg>
